<?xml version="1.0" encoding="utf-8"?>
<!-- Generator: Adobe Illustrator 19.0.0, SVG Export Plug-In . SVG Version: 6.00 Build 0)  -->
<svg version="1.0" id="Camada_1" xmlns="http://www.w3.org/2000/svg" xmlns:xlink="http://www.w3.org/1999/xlink" x="0px" y="0px"
	 viewBox="0 0 1280 720" style="enable-background:new 0 0 1280 720;" xml:space="preserve">
<style type="text/css">
	.st0{fill:#FFFFFF;}
	.st1{fill:#BD2026;stroke:#000000;stroke-width:4;stroke-miterlimit:10;}
	.st2{fill:none;stroke:#BD2026;stroke-miterlimit:10;}
	.st3{font-family:'AndaleMono';}
	.st4{font-size:93.1373px;}
</style>
<path id="XMLID_15_" class="st0" d="M644,210c-82.8,0-150,67.2-150,150s67.2,150,150,150s150-67.2,150-150S726.8,210,644,210z
	 M644,492.4c-73.1,0-132.4-59.3-132.4-132.4S570.9,227.6,644,227.6S776.4,286.9,776.4,360S717.1,492.4,644,492.4z"/>
<path id="XMLID_8_" class="st1" d="M663.7,394.8"/>
<line id="XMLID_10_" class="st2" x1="768" y1="2" x2="768" y2="4"/>
<path id="XMLID_13_" class="st0" d="M644,262c-54.1,0-98,43.9-98,98c0,54.1,43.9,98,98,98s98-43.9,98-98
	C742,305.9,698.1,262,644,262z M644,448.2c-48.7,0-88.2-39.5-88.2-88.2s39.5-88.2,88.2-88.2s88.2,39.5,88.2,88.2
	S692.7,448.2,644,448.2z"/>
<text id="XMLID_1_" transform="matrix(1.0131 0 0 1 590.416 387.1133)" class="st0 st3 st4">SC</text>
<path id="XMLID_9_" class="st0" d="M647.6,477.6v9.8c36.7-1,69.6-17.6,92.2-43.3l-7.5-6.3C711.5,461.4,681.3,476.6,647.6,477.6z"/>
</svg>
